HIERARCHY
ROOT root
{
	OFFSET 0.000000 0.000000 0.000000
	CHANNELS 6 Xposition Yposition Zposition Zrotation Yrotation Xrotation
	JOINT lhip
	{
		OFFSET 0.058581 -0.082280 -0.017664
		CHANNELS 3 Zrotation Yrotation Xrotation
		JOINT lknee
		{
			OFFSET 0.043451 -0.386469 0.008037
			CHANNELS 3 Zrotation Yrotation Xrotation
			JOINT lankle
			{
				OFFSET -0.014790 -0.426874 -0.037428
				CHANNELS 3 Zrotation Yrotation Xrotation
				JOINT ltoe
				{
					OFFSET 0.041054 -0.060286 0.122042
					CHANNELS 3 Zrotation Yrotation Xrotation
					End Site
					{
						OFFSET 0.000000 0.000000 0.000000
					}
				}
			}
		}
	}
	JOINT rhip
	{
		OFFSET -0.060310 -0.090513 -0.013543
		CHANNELS 3 Zrotation Yrotation Xrotation
		JOINT rknee
		{
			OFFSET -0.043257 -0.383688 -0.004843
			CHANNELS 3 Zrotation Yrotation Xrotation
			JOINT rankle
			{
				OFFSET 0.019056 -0.420046 -0.034562
				CHANNELS 3 Zrotation Yrotation Xrotation
				JOINT rtoe
				{
					OFFSET -0.034840 -0.062106 0.130323
					CHANNELS 3 Zrotation Yrotation Xrotation
					End Site
					{
						OFFSET 0.000000 0.000000 0.000000
					}
				}
			}
		}
	}
	JOINT lowerback
	{
		OFFSET 0.004439 0.124404 -0.038385
		CHANNELS 3 Zrotation Yrotation Xrotation
		JOINT upperback
		{
			OFFSET 0.004488 0.137956 0.026820
			CHANNELS 3 Zrotation Yrotation Xrotation
			JOINT chest
			{
				OFFSET -0.002265 0.056032 0.002855
				CHANNELS 3 Zrotation Yrotation Xrotation
				JOINT lowerneck
				{
					OFFSET -0.013390 0.211636 -0.033468
					CHANNELS 3 Zrotation Yrotation Xrotation
					JOINT upperneck
					{
						OFFSET 0.010113 0.088937 0.050410
						CHANNELS 3 Zrotation Yrotation Xrotation
						End Site
						{
							OFFSET 0.000000 0.000000 0.000000
						}
					}
				}
				JOINT lclavicle
				{
					OFFSET 0.071702 0.114000 -0.018898
					CHANNELS 3 Zrotation Yrotation Xrotation
					JOINT lshoulder
					{
						OFFSET 0.122921 0.045205 -0.019046
						CHANNELS 3 Zrotation Yrotation Xrotation
						JOINT lelbow
						{
							OFFSET 0.255332 -0.015649 -0.022946
							CHANNELS 3 Zrotation Yrotation Xrotation
							JOINT lwrist
							{
								OFFSET 0.265709 0.012698 -0.007375
								CHANNELS 3 Zrotation Yrotation Xrotation
								End Site
								{
									OFFSET 0.000000 0.000000 0.000000
								}
							}
						}
					}
				}
				JOINT rclavicle
				{
					OFFSET -0.082954 0.112472 -0.023707
					CHANNELS 3 Zrotation Yrotation Xrotation
					JOINT rshoulder
					{
						OFFSET -0.113228 0.046853 -0.008472
						CHANNELS 3 Zrotation Yrotation Xrotation
						JOINT relbow
						{
							OFFSET -0.260127 -0.014369 -0.031269
							CHANNELS 3 Zrotation Yrotation Xrotation
							JOINT rwrist
							{
								OFFSET -0.269108 0.006794 -0.006027
								CHANNELS 3 Zrotation Yrotation Xrotation
								End Site
								{
									OFFSET 0.000000 0.000000 0.000000
								}
							}
						}
					}
				}
			}
		}
	}
}
MOTION
Frames: 13
Frame Time: 0.033333
-0.158679 0.197679 0.952362 126.210640 -27.341393 125.746924 12.149837 5.099090 -13.553580 -8.951487 -19.699870 28.328542 -16.728933 2.664723 10.861807 0.000000 -0.000000 0.000000 -19.182066 -20.568327 -62.671160 1.211705 -15.456496 32.187358 2.647480 -8.836289 -12.120001 0.000000 -0.000000 0.000000 25.129642 -12.197304 57.275768 -0.814580 13.978291 7.124565 6.090984 -1.501441 1.073551 4.641783 -30.884491 -7.590696 4.357489 -1.759334 -19.093744 -14.610811 -24.877045 2.715810 -68.171946 -10.144393 29.503070 -3.519703 -55.572705 32.013226 26.764176 4.505656 -18.802934 -19.070395 26.008823 -11.724987 -18.916130 4.354338 -28.323477 3.688663 11.557586 -18.027040 -9.882578 7.406154 5.573556 
-0.157110 0.196991 0.954805 125.898509 -28.048662 126.773201 12.825076 5.610773 -12.437895 -8.936985 -19.496305 28.749810 -16.325986 3.393648 10.078999 0.000000 -0.000000 0.000000 -19.818836 -20.842285 -62.966680 1.423956 -15.479555 31.614375 2.978942 -8.673545 -12.053770 0.000000 -0.000000 0.000000 25.020204 -12.275866 57.172406 -0.844502 14.211218 7.013186 6.026165 -0.837335 0.873117 5.127731 -31.513752 -7.225663 4.663539 -1.779722 -20.261338 -14.951598 -25.481864 3.698767 -67.896084 -10.595104 29.526417 -3.279897 -55.141389 31.349755 26.679745 4.905192 -18.942571 -18.830581 26.062911 -11.469811 -19.758477 3.475788 -28.193905 4.095010 11.288732 -16.961008 -9.469639 7.787128 6.174277 
-0.156184 0.196327 0.957642 125.591217 -28.580583 127.589345 13.269024 5.968824 -11.541768 -8.990173 -19.467149 29.250996 -16.107885 3.418238 10.033951 0.000000 -0.000000 0.000000 -20.209789 -20.968767 -63.015027 1.415785 -15.506595 30.763299 3.030687 -8.310062 -11.920727 0.000000 -0.000000 0.000000 24.814341 -12.184446 57.026397 -0.837101 14.264499 6.812520 6.039103 -0.186493 0.736120 5.315822 -32.079006 -6.504497 5.085271 -1.667886 -21.627462 -15.164574 -26.036007 4.401057 -67.789167 -10.877506 29.494701 -2.701198 -54.600035 30.531787 26.059292 5.359209 -19.583861 -18.547780 26.010409 -11.143176 -19.429003 2.952635 -27.817983 3.732623 11.794920 -15.930793 -9.618920 7.714038 6.435549 
-0.155650 0.195758 0.960458 125.321156 -28.869299 128.117890 13.561431 6.123886 -10.792275 -9.224447 -19.548944 29.877955 -16.309853 3.236301 10.092979 0.000000 -0.000000 0.000000 -20.485377 -20.782796 -62.790796 1.383807 -15.353250 29.755940 3.017250 -8.168650 -11.778177 0.000000 -0.000000 0.000000 24.425933 -11.861382 56.793433 -0.633450 14.147080 6.790494 6.105457 0.527494 0.488782 5.180020 -32.157225 -5.598393 5.446166 -1.623337 -22.647304 -15.602268 -26.543845 5.142895 -67.393904 -11.028182 29.408905 -2.283429 -54.250029 29.597318 25.801071 5.441372 -20.027424 -17.676025 26.285119 -10.764864 -18.912114 2.501761 -27.338090 3.108540 12.577468 -15.523635 -9.455327 7.699257 5.872029 
-0.155556 0.195079 0.963404 125.217639 -28.924752 128.206261 13.666434 6.329973 -10.262205 -9.290607 -19.609363 30.856668 -16.841551 3.077906 10.446096 0.000000 -0.000000 0.000000 -20.464360 -20.397874 -62.393249 1.051421 -15.336122 28.932320 2.717150 -8.194883 -11.402104 0.000000 -0.000000 0.000000 23.806615 -11.539801 56.637814 -0.335733 13.968161 6.781646 6.254213 1.300044 0.233428 5.010655 -32.304204 -4.663994 5.765480 -1.650589 -23.240050 -15.999729 -26.645359 5.506269 -67.050311 -10.993644 29.518371 -1.705831 -54.238735 28.583254 24.455329 5.783626 -20.836837 -16.524179 26.613642 -10.471690 -18.238069 2.497341 -26.802049 2.575336 13.134128 -16.232452 -7.347758 6.649309 3.841124 
-0.155643 0.194638 0.966610 125.018324 -28.853048 128.087506 13.258629 6.161768 -9.825638 -9.684043 -20.231764 31.671080 -16.195958 3.307244 10.562812 0.000000 -0.000000 0.000000 -20.108420 -19.706196 -62.004159 0.493030 -14.569542 28.162417 2.085382 -8.655568 -11.085775 0.000000 -0.000000 0.000000 22.773835 -11.111980 56.784561 -0.148012 13.667979 6.107057 6.545742 2.198806 -0.028126 3.717006 -32.690335 -2.295234 7.380836 -1.089291 -24.419768 -16.816901 -26.986095 6.568535 -66.462071 -10.635029 30.090135 0.477325 -54.707870 26.362014 22.495005 6.222013 -22.433649 -15.040819 27.555422 -9.549771 -17.151938 1.790627 -25.841910 2.567138 14.006515 -17.061934 -2.941134 3.794033 -2.250713 
-0.155995 0.194831 0.968791 125.243650 -28.652897 127.143894 13.010671 6.074988 -9.530289 -9.717744 -20.086173 32.608085 -16.540880 2.693520 11.010146 0.000000 -0.000000 0.000000 -20.169568 -19.128908 -60.720778 0.160497 -14.685025 27.539163 2.114247 -8.422303 -10.862463 0.000000 -0.000000 0.000000 22.003937 -10.998557 56.951805 -0.084055 13.393093 5.717277 6.784102 2.613597 0.055371 3.621036 -32.686368 -2.184423 7.613088 -0.798760 -23.922795 -16.471238 -26.408099 6.145271 -66.761285 -10.723231 30.218030 0.295195 -54.188640 25.152095 21.392396 5.700714 -23.472555 -13.997584 27.556495 -9.789626 -15.189325 2.600324 -25.425600 3.386290 13.911805 -20.380152 0.773414 3.199450 -5.706872 
-0.156706 0.194251 0.971036 125.725878 -28.163071 125.975578 12.766725 6.065855 -9.698182 -9.581687 -19.586454 33.628156 -16.370328 2.230625 11.148094 0.000000 -0.000000 0.000000 -19.942743 -18.524895 -59.248918 0.125635 -14.606397 26.705362 1.943407 -8.791878 -10.393136 0.000000 -0.000000 0.000000 21.288406 -10.833061 56.594765 0.242966 12.922376 5.945058 6.843417 3.057048 -0.134205 3.513964 -32.403364 -2.115243 7.810372 -0.670226 -23.516296 -16.517613 -25.769352 5.839367 -66.660748 -10.315915 29.834764 0.265348 -54.382764 24.862186 19.252622 5.598356 -24.026900 -12.618436 27.675304 -9.590351 -12.256193 3.452903 -24.654281 2.742365 14.471643 -22.524591 5.881747 2.116572 -8.055753 
-0.157874 0.194040 0.973656 125.982529 -27.571339 124.813642 12.019438 5.949633 -10.077954 -9.359657 -18.937688 34.305398 -16.365641 1.524423 11.089790 0.000000 -0.000000 0.000000 -19.609251 -17.864280 -57.861846 -0.045564 -14.414796 26.079536 1.882953 -8.541163 -10.067774 0.000000 -0.000000 0.000000 20.488699 -10.547128 56.283423 0.424554 12.379765 5.879187 6.850616 3.455751 -0.271988 3.254226 -31.758530 -2.171829 7.607343 -0.781890 -23.315613 -16.867780 -24.886727 5.530954 -66.385641 -9.857037 29.270633 0.498039 -54.537101 24.382812 17.468038 4.650881 -23.892572 -10.756567 27.719092 -9.282302 -9.122054 4.506071 -23.418244 2.264351 15.171946 -23.115877 8.469416 1.560164 -8.939433 
-0.159360 0.193963 0.975709 126.424286 -26.827154 123.482363 11.295534 5.527104 -10.764393 -8.885626 -17.821920 34.149895 -16.447315 1.080028 11.759169 0.000000 -0.000000 0.000000 -19.086697 -17.191334 -56.369189 -0.363312 -14.797199 25.410447 1.760272 -8.290937 -9.860112 0.000000 -0.000000 0.000000 19.823889 -10.247252 55.910461 0.609006 11.670689 5.654534 6.844143 3.734991 -0.277617 3.150024 -30.716355 -2.896378 7.296325 -1.144526 -22.545381 -17.302782 -23.678728 5.203678 -66.237584 -9.607591 28.319466 1.436253 -54.788641 23.774374 14.989948 3.176434 -22.577089 -8.387104 27.488269 -8.417649 -6.139026 5.894229 -22.328935 1.635587 15.936646 -22.653755 9.756637 1.833336 -8.416170 
-0.161315 0.193844 0.977964 126.858060 -25.947124 122.042656 10.374511 5.157453 -11.707319 -8.433609 -16.618538 33.576974 -16.349356 0.211220 12.609449 0.000000 -0.000000 0.000000 -18.434612 -16.606058 -54.687505 -0.652332 -15.406755 24.446547 1.616004 -7.812533 -9.280909 0.000000 -0.000000 0.000000 19.247775 -9.923259 55.389114 0.746036 10.931592 5.661455 6.835133 4.116261 -0.469180 2.705194 -29.723018 -3.021164 7.430925 -1.148398 -22.605485 -17.795167 -22.641357 4.462799 -65.984272 -9.268570 27.102153 2.913820 -55.254370 23.172274 11.279918 1.345977 -19.882395 -6.216639 27.182048 -7.871576 -2.649706 6.723572 -21.178870 0.452034 17.289784 -22.519002 11.890884 1.723745 -7.865349 
-0.163854 0.193631 0.980449 127.206873 -24.832731 120.852147 8.943311 4.398351 -13.274998 -7.718000 -15.736295 32.895549 -16.073529 -0.963737 12.187756 0.000000 -0.000000 0.000000 -17.523676 -16.011530 -52.970989 -0.778311 -16.225034 22.857973 1.744547 -7.067369 -8.571256 0.000000 -0.000000 0.000000 18.702831 -9.408187 54.696851 0.908975 10.102403 5.423699 6.858857 4.333028 -0.699009 2.812622 -28.513710 -3.855867 7.017300 -1.727277 -21.714248 -18.112196 -21.338528 3.407199 -66.106253 -9.321590 25.857689 5.388218 -55.622534 21.921628 6.476525 -0.602318 -16.673398 -4.177551 26.602410 -7.130841 1.173359 8.068517 -19.757744 -1.194903 18.535884 -22.799057 14.389862 1.604368 -8.830168 
-0.166741 0.193208 0.983046 127.405108 -23.492544 119.800741 7.793011 3.594165 -15.018616 -7.625825 -14.742368 31.719078 -15.537413 -2.163771 10.413842 0.000000 -0.000000 0.000000 -16.267288 -15.508534 -51.368460 -0.781543 -16.927792 21.160130 1.953041 -6.014477 -7.852807 0.000000 -0.000000 0.000000 18.147028 -8.721845 53.741692 1.099950 9.143129 5.084902 6.894378 4.465035 -0.659809 2.778912 -26.764655 -4.243756 7.018656 -2.089507 -21.094320 -18.189525 -20.263117 2.169394 -66.118122 -9.725764 24.927227 7.903977 -56.629240 21.143431 2.033278 -1.026853 -13.810400 -2.532007 25.919686 -6.898529 5.062252 9.636031 -18.509097 -2.459578 19.177377 -22.066568 16.394536 1.367094 -10.597296 
